<mxfile host="app.diagrams.net" modified="2024-10-25T17:56:03.277Z" agent="Mozilla/5.0 (Windows NT 10.0; Win64; x64) AppleWebKit/537.36 (KHTML, like Gecko) Chrome/130.0.0.0 Safari/537.36" version="24.4.9" etag="uz9WrzuVcLB5iN_y8p8c" type="github">
  <diagram name="PÃ¡gina-1" id="YY9EfISU1MUfLG_RPN3a">
    <mxGraphModel>
      <root>
        <mxCell id="0" />
        <mxCell id="1" parent="0" />
      </root>
    </mxGraphModel>
  </diagram>
</mxfile>
